# xmcd
#
# Track frame offsets:
#	150
#	16732
#	33027
#	53122
#	65300
#	78742
#	93080
#	105197
#	118810
#	131677
#	147202
#	161707
#	175890
#	193312
#
# Disc length: 2791 seconds
#
# Revision: 2
# Processed by: cddbd v1.5.2PL0 Copyright (c) Steve Scherf et al.
# Submitted via: EasyCDDAExtractor 11.1.0.1
#
DISCID=b30ae50e
DTITLE=Various Artist - Mr. Music Country 5-98
DYEAR=1900
DGENRE=Country
TTITLE0=Michael Peterson& Travis Tritt - I Finally Passed the Bar
TTITLE1=Paul Brandt - A Little in Love
TTITLE2=Bill and Bonnie and Mike Hearne - New Mexico Rain
TTITLE3=Noel Haggard - Left, Leavin', Goin' or Gone
TTITLE4=Chris Cumming - Almost Always
TTITLE5=Tricia Elliott - Wall of Tears
TTITLE6=Jimmie Dale Gilmore - I Love You a Thousand Ways
TTITLE7=Royal Wade Kimes - A Lie
TTITLE8=Greg Holland - What's a Good Ol' Boy to Do
TTITLE9=Sons of the San Joaquin - Cool Water
TTITLE10=Mandy Barnett - Baby Don't You Know
TTITLE11=Little Texas - Living in a Bullseye
TTITLE12=The Hutchers - Billy's Dream
TTITLE13=Becky Hobbs - Honky Tonk Saturday Night
EXTD=
EXTT0=
EXTT1=
EXTT2=
EXTT3=
EXTT4=
EXTT5=
EXTT6=
EXTT7=
EXTT8=
EXTT9=
EXTT10=
EXTT11=
EXTT12=
EXTT13=
PLAYORDER=
